<svg width="200" height="200" viewBox="0 0 200 200" fill="none" xmlns="http://www.w3.org/2000/svg">
<g clip-path="url(#clip0_108_445)">
<path d="M49.5088 35.157C45.1618 40.677 45.0928 105.813 49.4398 110.16C53.2348 113.955 148.386 114.507 152.181 110.781C156.114 106.779 155.355 36.468 151.284 33.639C148.593 31.776 141.417 31.5 100.293 31.5H52.4068L49.5088 35.157ZM145.35 39.78C146.247 39.78 146.73 51.648 146.73 72.555V105.33H101.19H55.6498L55.3048 73.59C55.0978 56.202 55.1668 41.229 55.5118 40.332C55.9948 39.159 67.7938 38.883 100.017 39.297C124.236 39.573 144.591 39.78 145.35 39.78Z" fill="#666666"/>
<path d="M64.8268 48.474C55.3738 58.617 70.6918 72.417 80.5588 62.619C82.4218 60.756 83.9398 57.582 83.9398 55.65C83.9398 46.749 71.0368 41.919 64.8268 48.474Z" fill="#666666"/>
<path d="M114.3 55.65C113.334 56.823 107.055 62.757 100.362 68.898L88.1489 80.076L83.7329 75.66L79.3859 71.313L70.6229 80.007C62.9639 87.597 61.8599 89.322 61.8599 93.876V99.12H101.19H140.52V87.252V75.453L129.273 64.827C116.37 52.614 116.646 52.821 114.3 55.65ZM124.305 76.626C125.616 77.868 126.72 80.628 126.72 82.767C135.483 75.798 133.275 72.9 133.482 66.828L124.305 76.626Z" fill="#666666"/>
<path d="M2.03693 149.835C2.17493 156.459 2.65793 161.772 3.07193 161.565C3.55493 161.358 4.86593 161.22 5.96993 161.22C7.48793 161.22 8.03993 159.564 8.03993 154.665V148.11L12.5249 155.01C19.2869 165.36 21.0809 164.325 21.5639 149.835C21.9089 138.588 21.7709 137.76 19.2179 137.76C16.9409 137.76 16.3889 138.864 16.0439 144.315L15.6299 150.87L11.7659 144.315C5.07293 132.93 1.76093 134.793 2.03693 149.835Z" fill="#666666"/>
<path d="M53.5798 147.282C53.5798 160.599 53.9938 161.22 61.9978 161.22C70.0018 161.22 71.8648 157.563 64.2748 156.804L59.7898 156.39L59.3758 147.075C59.0308 138.864 58.6168 137.76 56.2708 137.76C53.8558 137.76 53.5798 138.726 53.5798 147.282Z" fill="#666666"/>
<path d="M136.38 138.381C136.38 138.726 137.76 141.348 139.485 144.177C141.141 147.075 142.866 152.181 143.28 155.562C144.177 163.704 148.8 165.153 148.8 157.287C148.869 154.389 150.525 149.214 152.871 145.005L156.873 137.76H153.423C150.939 137.76 149.559 138.933 148.248 142.038L146.454 146.247L144.729 142.038C143.211 138.45 136.38 135.414 136.38 138.381Z" fill="#666666"/>
<path d="M191.58 145.281C191.58 157.77 196.272 157.494 197.445 145.005C198.066 138.105 197.928 137.76 194.823 137.76C191.787 137.76 191.58 138.312 191.58 145.281Z" fill="#666666"/>
<path d="M177.504 141.555C175.71 148.938 178.401 160.323 182.265 161.358C185.439 162.186 186.06 161.91 186.06 159.702C186.06 158.253 185.439 157.08 184.68 157.08C183.921 157.08 183.3 154.872 183.3 152.25C183.3 149.559 183.921 147.42 184.68 147.42C185.439 147.42 186.06 146.454 186.06 145.35C186.06 144.177 185.439 143.28 184.68 143.28C183.921 143.28 183.3 142.314 183.3 141.21C183.3 138.312 178.263 138.588 177.504 141.555Z" fill="#666666"/>
<path d="M26.7388 144.039C23.7028 147.144 23.9098 157.425 27.1528 160.323C33.3628 165.981 41.1598 161.358 41.1598 151.905C41.1598 145.212 38.3998 141.9 32.8798 141.9C30.7408 141.9 27.9808 142.866 26.7388 144.039ZM35.3638 152.043C35.7088 156.252 35.3638 157.08 33.1558 157.08C29.9818 157.08 28.6708 153.423 30.3268 149.007C32.0518 144.384 34.8808 146.109 35.3638 152.043Z" fill="#666666"/>
<path d="M73.9348 143.418C70.4848 145.419 70.5538 157.149 74.0728 160.323C80.0068 165.705 88.0798 160.806 88.0798 151.767C88.0798 143.487 80.9728 139.278 73.9348 143.418ZM82.2838 152.043C82.6288 156.252 82.2838 157.08 80.0758 157.08C76.9018 157.08 75.5908 153.423 77.2468 149.007C78.9718 144.384 81.8008 146.109 82.2838 152.043Z" fill="#666666"/>
<path d="M92.4959 143.556C87.2519 148.8 91.9439 160.875 98.5679 159.219C101.19 158.598 101.949 158.805 101.535 160.116C101.19 161.082 99.3959 161.772 97.6019 161.634C92.0129 161.22 90.2189 162.255 92.2889 164.739C93.4619 166.188 95.8769 166.74 99.6719 166.464L105.33 166.05L105.744 153.975L106.158 141.9H100.155C96.8429 141.9 93.3929 142.659 92.4959 143.556ZM101.604 149.697C102.156 153.63 98.6369 156.39 96.4289 153.768C95.1869 152.25 95.1869 151.008 96.3599 148.8C98.2229 145.35 101.052 145.833 101.604 149.697Z" fill="#666666"/>
<path d="M112.299 144.039C109.263 147.144 109.47 157.425 112.713 160.323C118.923 165.981 126.72 161.358 126.72 151.905C126.72 145.212 123.96 141.9 118.44 141.9C116.301 141.9 113.541 142.866 112.299 144.039ZM120.924 152.043C121.269 156.252 120.924 157.08 118.716 157.08C115.542 157.08 114.231 153.423 115.887 149.007C117.612 144.384 120.441 146.109 120.924 152.043Z" fill="#666666"/>
<path d="M159.357 144.453C153.975 150.387 158.322 162.6 165.843 162.6C169.155 162.6 173.64 158.805 173.64 155.907C173.64 153.975 169.983 153.768 168.81 155.7C167.499 157.839 162.6 157.287 162.6 155.01C162.6 153.492 164.118 152.94 168.12 152.94C172.467 152.94 173.64 152.457 173.64 150.456C173.64 143.142 164.187 139.071 159.357 144.453Z" fill="#666666"/>
<path d="M191.58 159.15C191.58 162.117 192.132 162.738 194.685 162.324C196.755 162.048 197.79 160.944 197.79 159.15C197.79 157.356 196.755 156.252 194.685 155.976C192.132 155.562 191.58 156.183 191.58 159.15Z" fill="#666666"/>
</g>
<defs>
<clipPath id="clip0_108_445">
<rect width="200" height="200" fill="white"/>
</clipPath>
</defs>
</svg>
