<svg width="185" height="41" viewBox="0 0 185 41" fill="none" xmlns="http://www.w3.org/2000/svg">
<path d="M9.6435 17.625L3.375 21L9.6435 24.375M9.6435 17.625L18 22.125L26.3565 17.625M9.6435 17.625L3.375 14.25L18 6.375L32.625 14.25L26.3565 17.625M9.6435 24.375L3.375 27.75L18 35.625L32.625 27.75L26.3565 24.375M9.6435 24.375L18 28.875L26.3565 24.375M26.3565 17.625L32.625 21L26.3565 24.375" stroke="white" stroke-width="2.75" stroke-linecap="round" stroke-linejoin="round"/>
<path d="M67.46 11.235L61.898 30H58.415L54.473 15.798L50.288 30L46.832 30.027L41.513 11.235H44.78L48.668 26.517L52.88 11.235H56.336L60.251 26.436L64.166 11.235H67.46ZM71.5646 13.152C71.0066 13.152 70.5386 12.963 70.1606 12.585C69.7826 12.207 69.5936 11.739 69.5936 11.181C69.5936 10.623 69.7826 10.155 70.1606 9.777C70.5386 9.399 71.0066 9.21 71.5646 9.21C72.1046 9.21 72.5636 9.399 72.9416 9.777C73.3196 10.155 73.5086 10.623 73.5086 11.181C73.5086 11.739 73.3196 12.207 72.9416 12.585C72.5636 12.963 72.1046 13.152 71.5646 13.152ZM73.0766 15.123V30H69.9986V15.123H73.0766ZM80.1958 17.283C80.6458 16.527 81.2398 15.942 81.9778 15.528C82.7338 15.096 83.6248 14.88 84.6508 14.88V18.066H83.8678C82.6618 18.066 81.7438 18.372 81.1138 18.984C80.5018 19.596 80.1958 20.658 80.1958 22.17V30H77.1178V15.123H80.1958V17.283ZM101.115 22.197C101.115 22.755 101.079 23.259 101.007 23.709H89.6401C89.7301 24.897 90.1711 25.851 90.9631 26.571C91.7551 27.291 92.7271 27.651 93.8791 27.651C95.5351 27.651 96.7051 26.958 97.3891 25.572H100.71C100.26 26.94 99.4411 28.065 98.2531 28.947C97.0831 29.811 95.6251 30.243 93.8791 30.243C92.4571 30.243 91.1791 29.928 90.0451 29.298C88.9291 28.65 88.0471 27.75 87.3991 26.598C86.7691 25.428 86.4541 24.078 86.4541 22.548C86.4541 21.018 86.7601 19.677 87.3721 18.525C88.0021 17.355 88.8751 16.455 89.9911 15.825C91.1251 15.195 92.4211 14.88 93.8791 14.88C95.2831 14.88 96.5341 15.186 97.6321 15.798C98.7301 16.41 99.5851 17.274 100.197 18.39C100.809 19.488 101.115 20.757 101.115 22.197ZM97.9021 21.225C97.8841 20.091 97.4791 19.182 96.6871 18.498C95.8951 17.814 94.9141 17.472 93.7441 17.472C92.6821 17.472 91.7731 17.814 91.0171 18.498C90.2611 19.164 89.8111 20.073 89.6671 21.225H97.9021ZM110.381 17.634H107.627V30H104.522V17.634H102.767V15.123H104.522V14.07C104.522 12.36 104.972 11.118 105.872 10.344C106.79 9.552 108.221 9.156 110.165 9.156V11.721C109.229 11.721 108.572 11.901 108.194 12.261C107.816 12.603 107.627 13.206 107.627 14.07V15.123H110.381V17.634ZM116.187 17.283C116.637 16.527 117.231 15.942 117.969 15.528C118.725 15.096 119.616 14.88 120.642 14.88V18.066H119.859C118.653 18.066 117.735 18.372 117.105 18.984C116.493 19.596 116.187 20.658 116.187 22.17V30H113.109V15.123H116.187V17.283ZM122.445 22.494C122.445 21 122.751 19.677 123.363 18.525C123.993 17.373 124.839 16.482 125.901 15.852C126.981 15.204 128.169 14.88 129.465 14.88C130.635 14.88 131.652 15.114 132.516 15.582C133.398 16.032 134.1 16.599 134.622 17.283V15.123H137.727V30H134.622V27.786C134.1 28.488 133.389 29.073 132.489 29.541C131.589 30.009 130.563 30.243 129.411 30.243C128.133 30.243 126.963 29.919 125.901 29.271C124.839 28.605 123.993 27.687 123.363 26.517C122.751 25.329 122.445 23.988 122.445 22.494ZM134.622 22.548C134.622 21.522 134.406 20.631 133.974 19.875C133.56 19.119 133.011 18.543 132.327 18.147C131.643 17.751 130.905 17.553 130.113 17.553C129.321 17.553 128.583 17.751 127.899 18.147C127.215 18.525 126.657 19.092 126.225 19.848C125.811 20.586 125.604 21.468 125.604 22.494C125.604 23.52 125.811 24.42 126.225 25.194C126.657 25.968 127.215 26.562 127.899 26.976C128.601 27.372 129.339 27.57 130.113 27.57C130.905 27.57 131.643 27.372 132.327 26.976C133.011 26.58 133.56 26.004 133.974 25.248C134.406 24.474 134.622 23.574 134.622 22.548ZM159.779 14.88C160.949 14.88 161.993 15.123 162.911 15.609C163.847 16.095 164.576 16.815 165.098 17.769C165.638 18.723 165.908 19.875 165.908 21.225V30H162.857V21.684C162.857 20.352 162.524 19.335 161.858 18.633C161.192 17.913 160.283 17.553 159.131 17.553C157.979 17.553 157.061 17.913 156.377 18.633C155.711 19.335 155.378 20.352 155.378 21.684V30H152.327V21.684C152.327 20.352 151.994 19.335 151.328 18.633C150.662 17.913 149.753 17.553 148.601 17.553C147.449 17.553 146.531 17.913 145.847 18.633C145.181 19.335 144.848 20.352 144.848 21.684V30H141.77V15.123H144.848V16.824C145.352 16.212 145.991 15.735 146.765 15.393C147.539 15.051 148.367 14.88 149.249 14.88C150.437 14.88 151.499 15.132 152.435 15.636C153.371 16.14 154.091 16.869 154.595 17.823C155.045 16.923 155.747 16.212 156.701 15.69C157.655 15.15 158.681 14.88 159.779 14.88ZM183.46 22.197C183.46 22.755 183.424 23.259 183.352 23.709H171.985C172.075 24.897 172.516 25.851 173.308 26.571C174.1 27.291 175.072 27.651 176.224 27.651C177.88 27.651 179.05 26.958 179.734 25.572H183.055C182.605 26.94 181.786 28.065 180.598 28.947C179.428 29.811 177.97 30.243 176.224 30.243C174.802 30.243 173.524 29.928 172.39 29.298C171.274 28.65 170.392 27.75 169.744 26.598C169.114 25.428 168.799 24.078 168.799 22.548C168.799 21.018 169.105 19.677 169.717 18.525C170.347 17.355 171.22 16.455 172.336 15.825C173.47 15.195 174.766 14.88 176.224 14.88C177.628 14.88 178.879 15.186 179.977 15.798C181.075 16.41 181.93 17.274 182.542 18.39C183.154 19.488 183.46 20.757 183.46 22.197ZM180.247 21.225C180.229 20.091 179.824 19.182 179.032 18.498C178.24 17.814 177.259 17.472 176.089 17.472C175.027 17.472 174.118 17.814 173.362 18.498C172.606 19.164 172.156 20.073 172.012 21.225H180.247Z" fill="white"/>
</svg>
