<svg width="800" height="800" viewBox="0 0 800 800" fill="none" xmlns="http://www.w3.org/2000/svg">
<rect width="800" height="800" fill="#171717"/>
<path d="M378.667 410.667L390.896 398.437C391.896 397.437 393.253 396.876 394.667 396.876C396.081 396.876 397.437 397.437 398.437 398.437L410.667 410.667H378.667ZM405.333 405.333L409.563 401.104C410.563 400.104 411.919 399.542 413.333 399.542C414.748 399.542 416.104 400.104 417.104 401.104L421.333 405.333H405.333ZM405.333 389.333H405.36H405.333ZM384 421.333H416C417.415 421.333 418.771 420.771 419.771 419.771C420.772 418.771 421.333 417.414 421.333 416V384C421.333 382.586 420.772 381.229 419.771 380.229C418.771 379.229 417.415 378.667 416 378.667H384C382.586 378.667 381.229 379.229 380.229 380.229C379.229 381.229 378.667 382.586 378.667 384V416C378.667 417.414 379.229 418.771 380.229 419.771C381.229 420.771 382.586 421.333 384 421.333Z" stroke="white" stroke-width="3" stroke-linecap="round" stroke-linejoin="round"/>
</svg>
