<svg width="1546" height="800" viewBox="0 0 1546 800" fill="none" xmlns="http://www.w3.org/2000/svg">
<rect width="1546" height="800" fill="#171717"/>
<path d="M751.667 410.667L763.896 398.437C764.896 397.438 766.252 396.876 767.667 396.876C769.081 396.876 770.437 397.438 771.437 398.437L783.667 410.667H751.667ZM778.333 405.333L782.563 401.104C783.563 400.104 784.919 399.542 786.333 399.542C787.748 399.542 789.104 400.104 790.104 401.104L794.333 405.333H778.333ZM778.333 389.333H778.36H778.333ZM757 421.333H789C790.414 421.333 791.771 420.771 792.771 419.771C793.771 418.771 794.333 417.415 794.333 416V384C794.333 382.586 793.771 381.229 792.771 380.229C791.771 379.229 790.414 378.667 789 378.667H757C755.585 378.667 754.229 379.229 753.229 380.229C752.229 381.229 751.667 382.586 751.667 384V416C751.667 417.415 752.229 418.771 753.229 419.771C754.229 420.771 755.585 421.333 757 421.333Z" stroke="white" stroke-width="3" stroke-linecap="round" stroke-linejoin="round"/>
</svg>
