<svg id="final_svg" viewBox="268.18597412109375 388.0580139160156 539.3699951171875 290.8940734863281" xmlns="http://www.w3.org/2000/svg" xmlns:xlink="http://www.w3.org/1999/xlink" xml:space="preserve">
      <g id="png_group" transform="translate(404.681, 388.058) scale(0.8507746031746033)" opacity="1">
      <g height="162.87280049650795" width="267.994" transform="rotate(0)">
                  <style type="text/css">.st0{fill:#FFFFFF;}	.st1{fill:#D4D4D4;}	.st2{fill:#191959;}	.st3{fill:#FF0000;}</style>
          <g id="color_index_2" fill="rgba(15, 178, 239, 1)">
                          <path d="M298.9475,174.7208c0.0652,11.087-4.561,14.8326-14.0219,14.8326		c-64.8355,0.0273-218.8376,0.0273-231.0124,0.0091c-22.1461-0.0274-42.0779-12.4377-47.9343-32.9275		c-10.9862-38.4373,21.8267-56.8117,21.4169-56.5294c-2.9412-1.2659-11.6117-4.869-12.5589-13.6164		c-1.3041-12.0425,12.3225-14.0851,22.3392-13.4115V26.4132c-2.1763,0-21.9119,2.6682-22.9588-10.0654		C13.4847,7.4355,20.7216,1.8863,30.5107,1.8771c23.1658-0.0273,208.4474,0.018,231.6222,0.0091		C286.3187,2.0501,307.2165,21.6147,309,45.6957c1.9648,26.5291-18.115,43.9871-18.9069,44.6791c0,0,7.8438,3.7547,8.733,13.2339		c1.6684,17.7865-21.2218,15.6122-21.2218,15.6122v44.9794C277.6043,164.2003,298.4348,160.7391,298.9475,174.7208z"></path>
                      </g>
          <g id="color_index_1" fill="rgba(245, 145, 33, 1)">
                          <path d="M47.1595,162.6236h226.6234v-43.4027H47.1595C21.012,119.2209,15.6983,160.8666,47.1595,162.6236z"></path>
              <path d="M268.192,28.8689H41.5686v43.4027H268.192C298.841,70.1789,291.5273,25.31,268.192,28.8689z"></path>
                      </g>
          <g id="color_index_0" fill="rgba(25, 25, 89, 1)">
                          <path d="M287.6249,159.7619c-2.4614-0.029-7.6306-0.0043-7.6306-0.0043s0-12.8915,0-19.0887		c0-6.1516,0-18.0027,0-18.0027s10.1685-0.726,14.6409-2.0494c4.8151-1.4249,8.215-5.3283,8.8997-10.3427		c0.4909-3.5951,0.2565-7.7654-1.169-11.0126c-1.4146-3.2223-7.463-8.2827-7.463-8.2827c0.8087-0.7037,1.6444-1.3774,2.4367-2.0989		c14.274-12.9989,20.2866-29.0686,16.5988-48.0723c-4.6902-24.1694-25.0597-40.615-49.7286-40.7808		C240.5782,0.0271,51.6155-0.0188,27.9839,0.0089c-9.975,0.0117-17.1701,6.6369-17.2259,15.7587		c-0.0513,8.3957,6.8954,16.6387,17.3569,15.9306c2.2167-0.15,4.4522-0.0218,6.6724-0.0218c0,12.819,0,25.1002,0,37.7737		c-10.2198-0.6879-19.9258-0.1954-23.287,11.6921c-0.8189,2.8962-0.5431,6.6134,0.4571,9.3513		c1.7027,4.6615,5.4468,8.5248,8.4439,9.8211c0.4158-0.2917-0.6029,0.5606-0.9675,0.8647		C2.003,115.7178-4.3,137.4165,2.968,157.8446c7.2858,20.4782,26.303,33.5521,48.8874,33.5851		c12.4126,0.0181,169.4793,0.0126,235.6-0.008c9.6506-0.003,16.7986-6.7676,16.8469-15.7755		C304.351,166.5772,297.324,159.8762,287.6249,159.7619z M27.4766,80.2142c18.5209-0.0197,57.9698,0.0516,59.1391-0.1334		c3.0983-0.4902,4.9896-2.7829,4.7048-5.7323c-0.2977-3.0825-2.1384-4.7831-5.1889-4.8395		c-5.853-0.1082-32.7965-0.0588-40.6052-0.0588c0-4.6089-0.0001-8.8451-0.0001-13.4923c1.2906,0.0011,188.578,0.011,194.148-0.121		c3.1161-0.0739,4.55-2.378,4.533-5.2825c-0.0168-2.8852-2.0876-5.032-5.2164-5.308c-1.1864-0.1046-2.3881-0.0421-3.5829-0.0422		c-61.7763-0.0013-123.5526-0.0011-185.3289-0.0011c-1.4194,0-2.8388,0-4.5043,0c0-4.4376,0-8.6801,0-13.2173		c0.8128-0.0847,145.778-0.2898,217.3525-0.2556c10.4293,0.005,18.3277,6.3585,19.7952,15.628		c1.8215,11.5052-6.1982,21.3728-17.9462,22.0562c-1.3104,0.0762-154.9778,0.0233-155.9335,0.0397		c-4.2102,0.0724-6.6588,2.0566-6.6264,5.3587c0.0319,3.2556,2.557,5.3674,6.7126,5.3756		c17.6844,0.0349,35.369,0.0163,53.0535,0.0163c33.5766,0,67.1534,0.0272,100.7299-0.0136		c14.6356-0.0178,26.319-8.4878,29.9535-21.5393c5.2144-18.7254-8.2266-36.8174-27.9579-37.6194		c-1.3124-0.0534-2.6283-0.0264-3.9427-0.0264c-76.9505-0.001-233.7307,0.0581-235.1475-0.1075		c-2.9349-0.343-4.5367-2.1807-4.5534-5.0381c-0.016-2.7275,1.6565-4.4115,4.2994-4.9595		c1.0355-0.2147,159.2705-0.1256,237.2974-0.1039c21.6877,0.006,37.8989,13.8232,41.0202,34.8345		c3.3042,22.2423-14.5048,43.6693-37.1451,44.6779c-1.5509,0.0691-238.5009,0.0704-239.0983,0.0622		c-4.0156-0.0552-6.4354-1.9854-6.426-5.1217C21.0214,82.095,23.3633,80.2186,27.4766,80.2142z M288.945,180.6229		c-0.917,0.1979-159.3916,0.1017-237.6575,0.0804c-19.8016-0.0054-35.4711-12.2016-39.9722-30.9773		c-5.6589-23.6051,12.2544-47.4076,36.5276-48.5238c1.5508-0.0713,239.7166-0.1791,240.8846,0.0054		c0.1678,0.0265,4.675,0.8561,4.675,4.7862c0,4.7161-4.7761,5.2551-4.7761,5.2551s-159.3951,0.088-236.9441,0.1024		c-14.6504,0.0027-26.3361,8.4081-29.9934,21.4638c-5.2034,18.5753,7.8915,36.4918,27.5385,37.6625		c1.3105,0.0781,111.1291,0.0487,111.1291,0.0487s3.3803-0.0182,4.9504-0.4615c2.6353-0.7439,3.8447-2.778,3.596-5.4728		c-0.2498-2.7067-1.84-4.3605-4.5658-4.7057c-1.296-0.1641-58.4305-0.0891-112.5595-0.1039		c-10.3965-0.0029-18.3006-5.9225-20.0589-14.9122c-2.2599-11.5547,5.5754-21.7538,17.4938-22.7435		c1.188-0.0986,2.3879-0.0737,3.5823-0.0737c70.6185-0.0031,141.2371-0.0028,211.8557-0.0028c1.2951,0,2.5902,0,4.2601,0		c0,4.6777,0,8.8335,0,13.4923c-1.4576,0-2.8381,0-4.2186,0c-61.8958,0-188.083-0.0603-189.2706,0.0353		c-3.1566,0.2542-5.2216,2.3431-5.2746,5.2426c-0.0556,3.0468,2.0876,5.2256,5.4253,5.4535		c1.0707,0.0731,193.2792,0.0233,193.2792,0.0233l0.0001,13.4923c0,0-14.1952-0.002-17.6157,0.0009		c-4.0624,0.0025-60.5552-0.0738-64.6144,0.047c-3.3006,0.0983-5.2659,2.0551-5.3876,5.0359		c-0.1193,2.924,1.1486,4.4911,4.2923,4.9387c1.0567,0.1505,2.146,0.095,3.2203,0.0954		c14.5775,0.0051,98.9531,0.5882,100.0161,0.7103c2.78,0.3193,4.3642,2.06,4.5161,4.7182		C293.4441,178.2282,291.7469,180.0183,288.945,180.6229z"></path>
                      </g>
          <g id="color_index_3" fill="rgba(255, 0, 0, 1)">
                          <polygon points="252.0118,165.2356 235.9713,146.4338 219.9309,165.3934 219.9309,121.9907 252.0118,121.9907 	"></polygon>
                      </g>
              </g>
    </g>
    <g id="text_group" transform="rotate(0)" opacity="1">
      <g id="text_layer_1_0" fill="rgba(54, 63, 90, 1)" transform="translate(288.403173781212, 577.3160766571309)">
                  <path d="M44.69 5.04L50.21 5.04L38.78 40.85L33.12 40.85L26.21 19.68L19.49 40.85L13.82 40.85L1.68 5.04L7.06 5.04L16.56 31.82L23.28 10.70L21.46 5.04L26.83 5.04L35.86 31.82L44.69 5.04ZM61.15 40.85L56.26 40.85L56.26 15.98L61.15 15.98L61.15 40.85ZM90.82 30.72L92.35 33.31Q92.78 34.08 93.31 34.51Q93.84 34.94 94.42 35.16Q94.99 35.38 95.54 35.45Q96.10 35.52 96.53 35.52L96.53 35.52L98.26 35.52L98.26 40.85L96.10 40.85Q95.14 40.85 94.20 40.75Q93.26 40.66 92.35 40.27Q91.44 39.89 90.58 39.10Q89.71 38.30 88.85 36.91L88.85 36.91L85.01 30.67L84.67 30.67Q83.23 30.67 82.25 30.74Q81.26 30.82 80.52 31.01Q79.78 31.20 79.13 31.46Q78.48 31.73 77.71 32.11L77.71 32.11L77.71 40.85L72.67 40.85L72.67 15.98L88.70 15.98Q90.43 15.98 91.85 16.54Q93.26 17.09 94.32 18.10Q95.38 19.10 95.95 20.47Q96.53 21.84 96.53 23.47L96.53 23.47Q96.53 26.35 95.04 28.13Q93.55 29.90 90.82 30.72L90.82 30.72ZM84.67 25.73L88.70 25.73Q89.81 25.73 90.65 25.13Q91.49 24.53 91.49 23.33L91.49 23.33Q91.49 22.51 91.15 22.03Q90.82 21.55 90.31 21.31Q89.81 21.07 89.14 21Q88.46 20.93 87.84 20.93L87.84 20.93L77.71 20.93L77.71 27.17Q79.15 26.35 80.90 26.04Q82.66 25.73 84.67 25.73L84.67 25.73ZM112.75 31.92L112.75 35.86L128.35 35.86L128.35 40.85L107.86 40.85L107.86 15.98L127.44 15.98L127.44 20.93L112.75 20.93L112.75 26.98Q114.38 26.02 116.38 25.78Q118.37 25.54 120.53 25.54L120.53 25.54L124.18 25.54L124.18 30.48L120.53 30.48Q118.80 30.48 117.67 30.55Q116.54 30.62 115.73 30.77Q114.91 30.91 114.24 31.20Q113.57 31.49 112.75 31.92L112.75 31.92ZM167.81 16.22L155.57 30.86L143.42 16.22L143.42 40.85L138.29 40.85L138.29 10.08L134.11 5.04L140.88 5.04L155.52 22.61L170.35 5.04L177.12 5.04L172.94 10.08L172.94 40.85L167.81 40.85L167.81 16.22ZM206.83 28.22L206.83 28.22Q206.83 26.16 206.02 24.65Q205.20 23.14 203.86 22.15Q202.51 21.17 200.81 20.71Q199.10 20.26 197.33 20.26L197.33 20.26Q195.50 20.26 193.80 20.74Q192.10 21.22 190.78 22.22Q189.46 23.23 188.64 24.77Q187.82 26.30 187.82 28.42L187.82 28.42Q187.82 30.53 188.64 32.06Q189.46 33.60 190.80 34.61Q192.14 35.62 193.85 36.10Q195.55 36.58 197.38 36.58L197.38 36.58Q199.15 36.58 200.83 36.02Q202.51 35.47 203.86 34.42Q205.20 33.36 206.02 31.80Q206.83 30.24 206.83 28.22ZM212.02 28.18L212.02 28.18Q212.02 31.34 210.77 33.84Q209.52 36.34 207.48 38.06Q205.44 39.79 202.78 40.70Q200.11 41.62 197.28 41.62L197.28 41.62Q194.45 41.62 191.81 40.73Q189.17 39.84 187.13 38.14Q185.09 36.43 183.86 33.96Q182.64 31.49 182.64 28.32L182.64 28.32Q182.64 25.15 183.89 22.70Q185.14 20.26 187.20 18.58Q189.26 16.90 191.90 16.03Q194.54 15.17 197.33 15.17L197.33 15.17Q200.11 15.17 202.78 15.98Q205.44 16.80 207.48 18.43Q209.52 20.06 210.77 22.51Q212.02 24.96 212.02 28.18ZM240.72 33.94L243.60 38.06Q241.54 39.84 238.90 40.73Q236.26 41.62 233.38 41.62L233.38 41.62Q230.54 41.62 227.90 40.73Q225.26 39.84 223.22 38.14Q221.18 36.43 219.96 33.96Q218.74 31.49 218.74 28.32L218.74 28.32Q218.74 25.15 219.98 22.70Q221.23 20.26 223.30 18.58Q225.36 16.90 228 16.03Q230.64 15.17 233.42 15.17L233.42 15.17Q236.16 15.17 238.75 15.96Q241.34 16.75 243.41 18.29L243.41 18.29L240.10 22.13Q238.70 21.17 236.95 20.66Q235.20 20.16 233.42 20.16L233.42 20.16Q231.60 20.16 229.92 20.66Q228.24 21.17 226.90 22.18Q225.55 23.18 224.76 24.74Q223.97 26.30 223.97 28.42L223.97 28.42Q223.97 30.53 224.78 32.06Q225.60 33.60 226.94 34.61Q228.29 35.62 229.99 36.12Q231.70 36.62 233.47 36.62L233.47 36.62Q235.49 36.62 237.38 35.93Q239.28 35.23 240.72 33.94L240.72 33.94ZM263.76 31.25L257.47 40.85L252.24 40.85L252.24 15.98L257.47 15.98L257.47 31.92L268.94 15.98L275.28 15.98L267.07 27.17L270.72 33.31Q271.82 34.85 272.88 35.18Q273.94 35.52 274.90 35.52L274.90 35.52L276.62 35.52L276.62 40.85L274.46 40.85Q273.50 40.85 272.66 40.73Q271.82 40.61 270.98 40.22Q270.14 39.84 269.23 39.05Q268.32 38.26 267.22 36.91L267.22 36.91L263.76 31.25ZM323.38 40.85L298.27 40.85L298.27 5.04L303.50 5.04L303.50 35.62L323.38 35.62L323.38 40.85ZM334.99 40.85L330.10 40.85L330.10 15.98L334.99 15.98L334.99 40.85ZM351.46 20.93L351.46 26.59Q353.09 25.63 355.08 25.39Q357.07 25.15 359.23 25.15L359.23 25.15L361.78 25.15Q364.27 25.15 364.27 22.99L364.27 22.99Q364.27 21.98 363.58 21.46Q362.88 20.93 361.78 20.93L361.78 20.93L351.46 20.93ZM351.46 31.63L351.46 35.86L361.78 35.86Q362.54 35.86 363.24 35.74Q363.94 35.62 364.46 35.30Q364.99 34.99 365.33 34.44Q365.66 33.89 365.66 32.98L365.66 32.98Q365.66 31.58 364.75 30.89Q363.84 30.19 361.78 30.19L361.78 30.19L359.23 30.19Q357.50 30.19 356.38 30.26Q355.25 30.34 354.43 30.48Q353.62 30.62 352.94 30.91Q352.27 31.20 351.46 31.63L351.46 31.63ZM370.61 33.07L370.61 33.07Q370.61 36.82 368.28 38.83Q365.95 40.85 361.78 40.85L361.78 40.85L346.51 40.85L346.51 15.98L361.78 15.98Q363.31 15.98 364.68 16.49Q366.05 16.99 367.08 17.93Q368.11 18.86 368.71 20.14Q369.31 21.41 369.31 22.99L369.31 22.99Q369.31 24.24 368.95 25.34Q368.59 26.45 367.68 27.26L367.68 27.26Q369.07 28.08 369.84 29.66Q370.61 31.25 370.61 33.07ZM398.35 30.72L399.89 33.31Q400.32 34.08 400.85 34.51Q401.38 34.94 401.95 35.16Q402.53 35.38 403.08 35.45Q403.63 35.52 404.06 35.52L404.06 35.52L405.79 35.52L405.79 40.85L403.63 40.85Q402.67 40.85 401.74 40.75Q400.80 40.66 399.89 40.27Q398.98 39.89 398.11 39.10Q397.25 38.30 396.38 36.91L396.38 36.91L392.54 30.67L392.21 30.67Q390.77 30.67 389.78 30.74Q388.80 30.82 388.06 31.01Q387.31 31.20 386.66 31.46Q386.02 31.73 385.25 32.11L385.25 32.11L385.25 40.85L380.21 40.85L380.21 15.98L396.24 15.98Q397.97 15.98 399.38 16.54Q400.80 17.09 401.86 18.10Q402.91 19.10 403.49 20.47Q404.06 21.84 404.06 23.47L404.06 23.47Q404.06 26.35 402.58 28.13Q401.09 29.90 398.35 30.72L398.35 30.72ZM392.21 25.73L396.24 25.73Q397.34 25.73 398.18 25.13Q399.02 24.53 399.02 23.33L399.02 23.33Q399.02 22.51 398.69 22.03Q398.35 21.55 397.85 21.31Q397.34 21.07 396.67 21Q396 20.93 395.38 20.93L395.38 20.93L385.25 20.93L385.25 27.17Q386.69 26.35 388.44 26.04Q390.19 25.73 392.21 25.73L392.21 25.73ZM429.70 32.59L430.37 32.59L425.52 23.38L419.62 34.75Q420.82 34.13 423.31 33.36Q425.81 32.59 429.70 32.59L429.70 32.59ZM422.98 18.53L421.34 15.41L426.67 15.41L440.11 40.85L434.69 40.85L432.72 37.10L429.74 37.10Q427.44 37.10 425.18 37.49Q422.93 37.87 421.08 38.42Q419.23 38.98 417.96 39.58Q416.69 40.18 416.40 40.56L416.40 40.56L416.26 40.85L411.07 40.85L422.98 18.53ZM463.58 30.72L465.12 33.31Q465.55 34.08 466.08 34.51Q466.61 34.94 467.18 35.16Q467.76 35.38 468.31 35.45Q468.86 35.52 469.30 35.52L469.30 35.52L471.02 35.52L471.02 40.85L468.86 40.85Q467.90 40.85 466.97 40.75Q466.03 40.66 465.12 40.27Q464.21 39.89 463.34 39.10Q462.48 38.30 461.62 36.91L461.62 36.91L457.78 30.67L457.44 30.67Q456.00 30.67 455.02 30.74Q454.03 30.82 453.29 31.01Q452.54 31.20 451.90 31.46Q451.25 31.73 450.48 32.11L450.48 32.11L450.48 40.85L445.44 40.85L445.44 15.98L461.47 15.98Q463.20 15.98 464.62 16.54Q466.03 17.09 467.09 18.10Q468.14 19.10 468.72 20.47Q469.30 21.84 469.30 23.47L469.30 23.47Q469.30 26.35 467.81 28.13Q466.32 29.90 463.58 30.72L463.58 30.72ZM457.44 25.73L461.47 25.73Q462.58 25.73 463.42 25.13Q464.26 24.53 464.26 23.33L464.26 23.33Q464.26 22.51 463.92 22.03Q463.58 21.55 463.08 21.31Q462.58 21.07 461.90 21Q461.23 20.93 460.61 20.93L460.61 20.93L450.48 20.93L450.48 27.17Q451.92 26.35 453.67 26.04Q455.42 25.73 457.44 25.73L457.44 25.73ZM499.82 15.98L489.55 30.82L489.55 40.85L484.66 40.85L484.66 30.82L474.19 15.98L480.43 15.98L487.06 25.78L493.87 15.98L499.82 15.98Z"></path>
              </g>
    </g>
    <g id="tagline_group" transform="rotate(0)" opacity="1">
      <g id="text_layer_2_0" fill="rgba(118, 131, 168, 1)" transform="translate(266.8359711202259, 652.9420697673511)">
                  <path d="M22.41 10.14L14.76 19.29L7.17 10.14L7.17 25.53L3.96 25.53L3.96 6.30L1.35 3.15L5.58 3.15L14.73 14.13L24 3.15L28.23 3.15L25.62 6.30L25.62 25.53L22.41 25.53L22.41 10.14ZM46.80 17.64L46.80 17.64Q46.80 16.35 46.29 15.40Q45.78 14.46 44.94 13.84Q44.10 13.23 43.03 12.94Q41.97 12.66 40.86 12.66L40.86 12.66Q39.72 12.66 38.66 12.96Q37.59 13.26 36.77 13.89Q35.94 14.52 35.43 15.48Q34.92 16.44 34.92 17.76L34.92 17.76Q34.92 19.08 35.43 20.04Q35.94 21.00 36.78 21.63Q37.62 22.26 38.69 22.56Q39.75 22.86 40.89 22.86L40.89 22.86Q42 22.86 43.05 22.51Q44.10 22.17 44.94 21.51Q45.78 20.85 46.29 19.88Q46.80 18.90 46.80 17.64ZM50.04 17.61L50.04 17.61Q50.04 19.59 49.26 21.15Q48.48 22.71 47.20 23.79Q45.93 24.87 44.27 25.44Q42.60 26.01 40.83 26.01L40.83 26.01Q39.06 26.01 37.41 25.45Q35.76 24.90 34.48 23.83Q33.21 22.77 32.45 21.22Q31.68 19.68 31.68 17.70L31.68 17.70Q31.68 15.72 32.46 14.19Q33.24 12.66 34.53 11.61Q35.82 10.56 37.47 10.02Q39.12 9.48 40.86 9.48L40.86 9.48Q42.60 9.48 44.27 9.99Q45.93 10.50 47.20 11.52Q48.48 12.54 49.26 14.07Q50.04 15.60 50.04 17.61ZM67.98 21.21L69.78 23.79Q68.49 24.90 66.84 25.45Q65.19 26.01 63.39 26.01L63.39 26.01Q61.62 26.01 59.97 25.45Q58.32 24.90 57.05 23.83Q55.77 22.77 55.01 21.22Q54.24 19.68 54.24 17.70L54.24 17.70Q54.24 15.72 55.02 14.19Q55.80 12.66 57.09 11.61Q58.38 10.56 60.03 10.02Q61.68 9.48 63.42 9.48L63.42 9.48Q65.13 9.48 66.75 9.97Q68.37 10.47 69.66 11.43L69.66 11.43L67.59 13.83Q66.72 13.23 65.63 12.91Q64.53 12.60 63.42 12.60L63.42 12.60Q62.28 12.60 61.23 12.91Q60.18 13.23 59.34 13.86Q58.50 14.49 58.01 15.46Q57.51 16.44 57.51 17.76L57.51 17.76Q57.51 19.08 58.02 20.04Q58.53 21.00 59.37 21.63Q60.21 22.26 61.27 22.57Q62.34 22.89 63.45 22.89L63.45 22.89Q64.71 22.89 65.89 22.45Q67.08 22.02 67.98 21.21L67.98 21.21ZM82.38 19.53L78.45 25.53L75.18 25.53L75.18 9.99L78.45 9.99L78.45 19.95L85.62 9.99L89.58 9.99L84.45 16.98L86.73 20.82Q87.42 21.78 88.08 21.99Q88.74 22.20 89.34 22.20L89.34 22.20L90.42 22.20L90.42 25.53L89.07 25.53Q88.47 25.53 87.94 25.45Q87.42 25.38 86.89 25.14Q86.37 24.90 85.80 24.40Q85.23 23.91 84.54 23.07L84.54 23.07L82.38 19.53ZM99.18 25.53L96.12 25.53L96.12 9.99L99.18 9.99L99.18 25.53ZM104.43 9.99L108.30 9.99L117.69 20.79L117.69 9.99L120.78 9.99L120.78 25.53L117.69 25.53L109.05 15.42L109.05 25.53L105.96 25.53L105.96 12.30L104.43 9.99ZM141.45 16.68L141.45 23.79Q140.16 24.90 138.51 25.45Q136.86 26.01 135.06 26.01L135.06 26.01Q133.29 26.01 131.64 25.45Q129.99 24.90 128.72 23.83Q127.44 22.77 126.67 21.22Q125.91 19.68 125.91 17.70L125.91 17.70Q125.91 15.72 126.69 14.19Q127.47 12.66 128.76 11.61Q130.05 10.56 131.70 10.02Q133.35 9.48 135.09 9.48L135.09 9.48Q136.80 9.48 138.42 9.97Q140.04 10.47 141.33 11.43L141.33 11.43L139.26 13.83Q138.39 13.23 137.30 12.91Q136.20 12.60 135.09 12.60L135.09 12.60Q133.95 12.60 132.90 12.91Q131.85 13.23 131.01 13.86Q130.17 14.49 129.68 15.46Q129.18 16.44 129.18 17.76L129.18 17.76Q129.18 19.08 129.69 20.04Q130.20 21.00 131.04 21.63Q131.88 22.26 132.94 22.57Q134.01 22.89 135.12 22.89L135.12 22.89Q136.86 22.89 138.39 22.08L138.39 22.08L138.39 19.59L136.80 19.59L135.48 16.68L141.45 16.68ZM167.91 13.08L162.06 13.08L162.06 25.53L158.97 25.53L158.97 13.08L153.33 13.08L153.33 9.99L167.91 9.99L167.91 13.08ZM175.77 19.35L175.77 25.53L172.71 25.53L172.71 9.99L175.77 9.99L175.77 16.20Q176.55 15.81 177.60 15.81L177.60 15.81Q178.56 15.81 179.83 16.03Q181.11 16.26 182.28 16.26L182.28 16.26Q182.79 16.26 183.27 16.18Q183.75 16.11 184.23 15.87L184.23 15.87L184.23 9.99L187.29 9.99L187.29 25.53L184.23 25.53L184.23 19.02Q183.78 19.26 183.33 19.33Q182.88 19.41 182.40 19.41L182.40 19.41Q181.14 19.41 180.00 19.20Q178.86 18.99 177.72 18.99L177.72 18.99Q177.21 18.99 176.73 19.06Q176.25 19.14 175.77 19.35L175.77 19.35ZM197.55 19.95L197.55 22.41L207.30 22.41L207.30 25.53L194.49 25.53L194.49 9.99L206.73 9.99L206.73 13.08L197.55 13.08L197.55 16.86Q198.57 16.26 199.81 16.11Q201.06 15.96 202.41 15.96L202.41 15.96L204.69 15.96L204.69 19.05L202.41 19.05Q201.33 19.05 200.63 19.09Q199.92 19.14 199.41 19.23Q198.90 19.32 198.48 19.50Q198.06 19.68 197.55 19.95L197.55 19.95ZM227.97 5.52L226.74 2.76L230.34 2.76L241.11 25.53L237.45 25.53L235.98 22.26L229.17 22.26Q227.64 22.26 226.45 22.47Q225.27 22.68 224.43 23.01Q223.59 23.34 223.08 23.73Q222.57 24.12 222.39 24.48L222.39 24.48L221.82 25.53L218.28 25.53L227.97 5.52ZM230.37 18.96L234.51 18.96L229.62 9.51L224.67 20.22Q225.27 19.71 226.65 19.33Q228.03 18.96 230.37 18.96L230.37 18.96ZM252.84 12.72L256.80 12.72Q260.10 12.72 260.10 9.54L260.10 9.54Q260.10 7.83 259.26 7.13Q258.42 6.42 256.80 6.42L256.80 6.42L248.58 6.42L248.58 13.62Q249.60 13.02 250.66 12.87Q251.73 12.72 252.84 12.72L252.84 12.72ZM248.58 25.53L245.31 25.53L245.31 3.15L256.80 3.15Q258.27 3.15 259.49 3.58Q260.70 4.02 261.56 4.84Q262.41 5.67 262.88 6.85Q263.34 8.04 263.34 9.54L263.34 9.54Q263.34 11.04 262.88 12.22Q262.41 13.41 261.56 14.26Q260.70 15.12 259.49 15.57Q258.27 16.02 256.80 16.02L256.80 16.02L252.84 16.02Q251.76 16.02 250.68 16.20Q249.60 16.38 248.58 16.92L248.58 16.92L248.58 25.53ZM271.35 25.53L268.14 25.53L268.14 3.15L271.35 3.15L271.35 25.53ZM290.16 11.43L288.09 13.83Q287.19 13.08 286.00 12.78Q284.82 12.48 283.47 12.48L283.47 12.48Q282.90 12.48 282.34 12.61Q281.79 12.75 281.34 12.97Q280.89 13.20 280.60 13.51Q280.32 13.83 280.32 14.16L280.32 14.16Q280.32 14.52 280.42 14.80Q280.53 15.09 280.88 15.28Q281.22 15.48 281.89 15.60Q282.57 15.72 283.71 15.72L283.71 15.72Q286.17 15.72 287.69 16.11Q289.20 16.50 290.01 17.16Q290.82 17.82 291.09 18.69Q291.36 19.56 291.36 20.49L291.36 20.49Q291.36 21.90 290.76 22.93Q290.16 23.97 289.09 24.64Q288.03 25.32 286.59 25.66Q285.15 26.01 283.50 26.01L283.50 26.01Q281.43 26.01 279.58 25.12Q277.74 24.24 276.45 22.71L276.45 22.71L278.67 20.46Q279.03 20.82 279.44 21.27Q279.84 21.72 280.39 22.11Q280.95 22.50 281.70 22.75Q282.45 23.01 283.50 23.01L283.50 23.01Q285.66 23.01 286.98 22.38Q288.30 21.75 288.30 20.49L288.30 20.49Q288.30 19.44 287.11 19.11Q285.93 18.78 283.50 18.78L283.50 18.78Q282.09 18.78 280.92 18.54Q279.75 18.30 278.89 17.74Q278.04 17.19 277.56 16.30Q277.08 15.42 277.08 14.16L277.08 14.16Q277.08 13.11 277.60 12.24Q278.13 11.37 279 10.75Q279.87 10.14 281.04 9.81Q282.21 9.48 283.50 9.48L283.50 9.48Q285.21 9.48 286.83 9.87Q288.45 10.26 290.16 11.43L290.16 11.43ZM318.36 9.99L311.94 19.26L311.94 25.53L308.88 25.53L308.88 19.26L302.34 9.99L306.24 9.99L310.38 16.11L314.64 9.99L318.36 9.99ZM336.06 17.64L336.06 17.64Q336.06 16.35 335.55 15.40Q335.04 14.46 334.20 13.84Q333.36 13.23 332.29 12.94Q331.23 12.66 330.12 12.66L330.12 12.66Q328.98 12.66 327.91 12.96Q326.85 13.26 326.02 13.89Q325.20 14.52 324.69 15.48Q324.18 16.44 324.18 17.76L324.18 17.76Q324.18 19.08 324.69 20.04Q325.20 21.00 326.04 21.63Q326.88 22.26 327.94 22.56Q329.01 22.86 330.15 22.86L330.15 22.86Q331.26 22.86 332.31 22.51Q333.36 22.17 334.20 21.51Q335.04 20.85 335.55 19.88Q336.06 18.90 336.06 17.64ZM339.30 17.61L339.30 17.61Q339.30 19.59 338.52 21.15Q337.74 22.71 336.46 23.79Q335.19 24.87 333.52 25.44Q331.86 26.01 330.09 26.01L330.09 26.01Q328.32 26.01 326.67 25.45Q325.02 24.90 323.74 23.83Q322.47 22.77 321.70 21.22Q320.94 19.68 320.94 17.70L320.94 17.70Q320.94 15.72 321.72 14.19Q322.50 12.66 323.79 11.61Q325.08 10.56 326.73 10.02Q328.38 9.48 330.12 9.48L330.12 9.48Q331.86 9.48 333.52 9.99Q335.19 10.50 336.46 11.52Q337.74 12.54 338.52 14.07Q339.30 15.60 339.30 17.61ZM351.66 26.01L351.60 26.01Q349.98 26.01 348.62 25.62Q347.25 25.23 346.25 24.43Q345.24 23.64 344.69 22.39Q344.13 21.15 344.13 19.44L344.13 19.44L344.13 9.99L347.22 9.99L347.22 19.44Q347.22 20.43 347.53 21.09Q347.85 21.75 348.44 22.15Q349.02 22.56 349.83 22.72Q350.64 22.89 351.63 22.89L351.63 22.89Q352.62 22.89 353.43 22.72Q354.24 22.56 354.82 22.15Q355.41 21.75 355.72 21.09Q356.04 20.43 356.04 19.44L356.04 19.44L356.04 9.99L359.13 9.99L359.13 19.44Q359.13 21.15 358.57 22.39Q358.02 23.64 357.01 24.43Q356.01 25.23 354.64 25.62Q353.28 26.01 351.66 26.01L351.66 26.01ZM381.84 13.08L378.75 13.08L378.75 22.41L381.84 22.41Q384.09 22.41 385.32 21.18Q386.55 19.95 386.55 17.70L386.55 17.70Q386.55 15.42 385.32 14.25Q384.09 13.08 381.84 13.08L381.84 13.08ZM373.59 13.08L372.21 9.99L381.84 9.99Q383.58 9.99 385.04 10.48Q386.49 10.98 387.52 11.95Q388.56 12.93 389.13 14.35Q389.70 15.78 389.70 17.64L389.70 17.64Q389.70 19.44 389.14 20.91Q388.59 22.38 387.56 23.40Q386.52 24.42 385.06 24.97Q383.61 25.53 381.84 25.53L381.84 25.53L375.51 25.53L375.51 13.08L373.59 13.08ZM398.46 19.95L398.46 22.41L408.21 22.41L408.21 25.53L395.40 25.53L395.40 9.99L407.64 9.99L407.64 13.08L398.46 13.08L398.46 16.86Q399.48 16.26 400.73 16.11Q401.97 15.96 403.32 15.96L403.32 15.96L405.60 15.96L405.60 19.05L403.32 19.05Q402.24 19.05 401.54 19.09Q400.83 19.14 400.32 19.23Q399.81 19.32 399.39 19.50Q398.97 19.68 398.46 19.95L398.46 19.95ZM417.12 13.08L417.12 17.73Q418.14 17.13 419.40 16.98Q420.66 16.83 422.01 16.83L422.01 16.83L423.39 16.83Q424.50 16.83 425.18 16.48Q425.85 16.14 425.85 14.88L425.85 14.88Q425.85 14.31 425.64 13.95Q425.43 13.59 425.09 13.39Q424.74 13.20 424.31 13.14Q423.87 13.08 423.39 13.08L423.39 13.08L417.12 13.08ZM417.12 25.53L414.06 25.53L414.06 9.99L423.93 9.99Q425.04 9.99 425.99 10.33Q426.93 10.68 427.59 11.32Q428.25 11.97 428.63 12.88Q429.00 13.80 429.00 14.91L429.00 14.91Q429.00 17.25 427.52 18.58Q426.03 19.92 423.39 19.92L423.39 19.92L422.01 19.92Q420.93 19.92 420.23 19.96Q419.52 20.01 419.00 20.10Q418.47 20.19 418.05 20.37Q417.63 20.55 417.12 20.82L417.12 20.82L417.12 25.53ZM436.89 19.95L436.89 22.41L446.64 22.41L446.64 25.53L433.83 25.53L433.83 9.99L446.07 9.99L446.07 13.08L436.89 13.08L436.89 16.86Q437.91 16.26 439.16 16.11Q440.40 15.96 441.75 15.96L441.75 15.96L444.03 15.96L444.03 19.05L441.75 19.05Q440.67 19.05 439.97 19.09Q439.26 19.14 438.75 19.23Q438.24 19.32 437.82 19.50Q437.40 19.68 436.89 19.95L436.89 19.95ZM450.84 9.99L454.71 9.99L464.10 20.79L464.10 9.99L467.19 9.99L467.19 25.53L464.10 25.53L455.46 15.42L455.46 25.53L452.37 25.53L452.37 12.30L450.84 9.99ZM482.07 13.08L478.98 13.08L478.98 22.41L482.07 22.41Q484.32 22.41 485.55 21.18Q486.78 19.95 486.78 17.70L486.78 17.70Q486.78 15.42 485.55 14.25Q484.32 13.08 482.07 13.08L482.07 13.08ZM473.82 13.08L472.44 9.99L482.07 9.99Q483.81 9.99 485.27 10.48Q486.72 10.98 487.76 11.95Q488.79 12.93 489.36 14.35Q489.93 15.78 489.93 17.64L489.93 17.64Q489.93 19.44 489.38 20.91Q488.82 22.38 487.79 23.40Q486.75 24.42 485.30 24.97Q483.84 25.53 482.07 25.53L482.07 25.53L475.74 25.53L475.74 13.08L473.82 13.08ZM517.38 17.64L517.38 17.64Q517.38 16.35 516.87 15.40Q516.36 14.46 515.52 13.84Q514.68 13.23 513.62 12.94Q512.55 12.66 511.44 12.66L511.44 12.66Q510.30 12.66 509.24 12.96Q508.17 13.26 507.35 13.89Q506.52 14.52 506.01 15.48Q505.50 16.44 505.50 17.76L505.50 17.76Q505.50 19.08 506.01 20.04Q506.52 21.00 507.36 21.63Q508.20 22.26 509.27 22.56Q510.33 22.86 511.47 22.86L511.47 22.86Q512.58 22.86 513.63 22.51Q514.68 22.17 515.52 21.51Q516.36 20.85 516.87 19.88Q517.38 18.90 517.38 17.64ZM520.62 17.61L520.62 17.61Q520.62 19.59 519.84 21.15Q519.06 22.71 517.79 23.79Q516.51 24.87 514.85 25.44Q513.18 26.01 511.41 26.01L511.41 26.01Q509.64 26.01 507.99 25.45Q506.34 24.90 505.07 23.83Q503.79 22.77 503.03 21.22Q502.26 19.68 502.26 17.70L502.26 17.70Q502.26 15.72 503.04 14.19Q503.82 12.66 505.11 11.61Q506.40 10.56 508.05 10.02Q509.70 9.48 511.44 9.48L511.44 9.48Q513.18 9.48 514.85 9.99Q516.51 10.50 517.79 11.52Q519.06 12.54 519.84 14.07Q520.62 15.60 520.62 17.61ZM524.37 9.99L528.24 9.99L537.63 20.79L537.63 9.99L540.72 9.99L540.72 25.53L537.63 25.53L528.99 15.42L528.99 25.53L525.90 25.53L525.90 12.30L524.37 9.99Z"></path>
              </g>
    </g>
  </svg>