<svg fill="currentcolor" xmlns="http://www.w3.org/2000/svg" viewBox="0 0 30 30" width="30" height="30"><path d="M28 6.937c-.957.425-1.985.711-3.064.84 1.102-.66 1.947-1.705 2.345-2.951-1.03.611-2.172 1.055-3.388 1.295C22.92 5.084 21.534 4.436 20 4.436c-2.946.0-5.334 2.389-5.334 5.334.0.418.048.826.138 1.215-4.433-.222-8.363-2.346-10.995-5.574C3.351 6.199 3.088 7.115 3.088 8.094c0 1.85.941 3.483 2.372 4.439-.874-.028-1.697-.268-2.416-.667.0.023.0.044.0.067.0 2.585 1.838 4.741 4.279 5.23-.447.122-.919.187-1.406.187-.343.0-.678-.034-1.003-.095.679 2.119 2.649 3.662 4.983 3.705-1.825 1.431-4.125 2.284-6.625 2.284-.43.0-.855-.025-1.273-.075 2.361 1.513 5.164 2.396 8.177 2.396 9.812.0 15.176-8.128 15.176-15.177.0-.231-.005-.461-.015-.69C26.38 8.945 27.285 8.006 28 6.937z"></path></svg>